<?xml version="1.0" standalone="no"?>
<!DOCTYPE svg PUBLIC "-//W3C//DTD SVG 20010904//EN"
 "http://www.w3.org/TR/2001/REC-SVG-20010904/DTD/svg10.dtd">
<svg version="1.0" xmlns="http://www.w3.org/2000/svg"
 width="261.000000pt" height="256.000000pt" viewBox="0 0 261.000000 256.000000"
 preserveAspectRatio="xMidYMid meet">

<g transform="translate(0.000000,256.000000) scale(0.100000,-0.100000)"
fill="#000000" stroke="none">
<path d="M1194 2114 c-23 -82 -16 -191 19 -265 33 -68 111 -148 181 -183 64
-33 166 -50 221 -38 38 8 37 9 -37 15 -103 9 -195 54 -265 130 -87 95 -116
190 -102 332 3 33 4 62 3 64 -2 2 -10 -23 -20 -55z"/>
<path d="M543 1953 c-13 -8 -23 -19 -23 -24 0 -14 44 -10 66 6 16 13 17 16 4
25 -19 12 -20 12 -47 -7z"/>
<path d="M695 1871 c-39 -6 -39 -7 23 -14 112 -12 200 -76 245 -175 14 -34 21
-76 25 -169 3 -84 9 -123 16 -120 15 5 19 156 6 242 -6 38 -22 88 -35 111 -54
92 -169 143 -280 125z"/>
<path d="M281 1734 c0 -11 3 -14 6 -6 3 7 2 16 -1 19 -3 4 -6 -2 -5 -13z"/>
<path d="M382 1723 c-22 -55 -25 -83 -9 -83 10 0 16 16 20 52 8 60 4 70 -11
31z"/>
<path d="M261 1650 c-6 -28 -11 -98 -11 -155 0 -87 3 -105 15 -105 13 0 15 24
15 155 0 85 -2 155 -4 155 -2 0 -9 -23 -15 -50z"/>
<path d="M1286 1524 c-13 -34 -4 -57 38 -102 24 -26 54 -67 67 -92 l24 -45 0
-450 c0 -447 0 -450 -22 -492 -46 -85 -131 -123 -277 -123 -101 0 -120 -9
-114 -52 l3 -23 496 -3 c539 -2 554 -1 593 51 39 53 19 184 -78 510 -14 48
-26 94 -26 102 0 13 -38 15 -270 15 l-270 0 0 236 0 236 -30 62 c-19 38 -45
72 -70 91 -31 24 -39 37 -40 63 0 34 -14 43 -24 16z"/>
<path d="M126 1260 c-4 -14 -6 -207 -4 -430 3 -444 3 -443 63 -480 31 -19 52
-20 502 -20 519 0 543 2 598 60 l30 31 3 200 3 199 -225 0 c-144 0 -226 4
-226 10 0 6 4 10 8 10 14 0 32 74 32 131 0 94 -56 149 -152 149 -64 0 -80 -16
-23 -23 51 -5 86 -27 119 -71 34 -45 29 -135 -12 -214 l-33 -64 12 -95 c14
-113 15 -113 -87 -113 -85 0 -110 13 -95 52 5 15 11 71 13 125 l3 98 -246 3
-246 2 -7 188 c-4 103 -10 207 -15 232 -7 40 -8 42 -15 20z"/>
<path d="M2006 1044 c-4 -10 3 -23 18 -35 51 -40 126 -186 203 -399 50 -137
55 -144 111 -136 52 7 85 25 108 61 16 24 15 32 -11 143 -15 64 -32 123 -37
130 -7 8 -42 12 -107 12 l-96 0 -30 62 c-30 62 -95 155 -118 170 -19 12 -34 9
-41 -8z"/>
</g>
</svg>
