<?xml version="1.0" standalone="no"?>
<!DOCTYPE svg PUBLIC "-//W3C//DTD SVG 20010904//EN"
 "http://www.w3.org/TR/2001/REC-SVG-20010904/DTD/svg10.dtd">
<svg version="1.0" xmlns="http://www.w3.org/2000/svg"
 width="400.000000pt" height="400.000000pt" viewBox="0 0 400.000000 400.000000"
 preserveAspectRatio="xMidYMid meet">

<g transform="translate(0.000000,400.000000) scale(0.100000,-0.100000)"
fill="#000000" stroke="none">
<path d="M0 2000 l0 -2000 2000 0 2000 0 0 2000 0 2000 -2000 0 -2000 0 0
-2000z m2329 1895 c157 -33 311 -113 431 -223 l55 -51 -743 -1 -742 0 19 39
c53 103 239 199 458 236 112 19 434 19 522 0z m-1056 -237 c-40 -51 -39 -152
3 -213 13 -20 24 -39 24 -43 0 -4 -25 -20 -55 -35 l-54 -26 -41 69 c-22 38
-43 76 -46 85 -5 11 18 40 75 95 45 44 87 80 93 80 7 0 7 -4 1 -12z m517 -533
c118 -24 197 -28 350 -14 194 16 351 3 434 -38 43 -21 53 -30 47 -42 -5 -9 -6
-22 -4 -28 3 -8 -4 -13 -16 -13 -12 0 -21 -6 -21 -15 0 -11 -11 -15 -36 -15
-19 0 -33 -4 -29 -9 3 -5 -5 -13 -17 -16 -27 -9 -930 -9 -957 0 -12 3 -19 11
-16 16 4 5 -9 9 -28 9 -22 0 -37 6 -41 15 -3 8 -12 15 -21 15 -8 0 -15 6 -16
13 0 6 -2 20 -4 30 -3 15 12 26 63 49 122 56 193 77 221 66 14 -5 55 -15 91
-23z m300 -703 c31 -16 73 -46 94 -67 38 -38 39 -39 19 -52 -20 -13 -17 -18
63 -98 76 -77 94 -90 187 -131 56 -25 106 -50 112 -55 12 -12 -40 -59 -127
-116 -46 -31 -57 -43 -60 -70 -4 -30 -2 -32 22 -26 63 15 260 133 305 183 10
11 24 20 32 20 33 0 270 -103 332 -144 37 -25 106 -85 153 -134 113 -118 132
-163 126 -312 -3 -58 -10 -115 -16 -127 -7 -12 -26 -25 -44 -28 -18 -4 -39
-11 -48 -15 -8 -5 -49 -23 -90 -41 -79 -34 -190 -104 -190 -120 0 -5 -4 -9 -9
-9 -12 0 -76 -62 -83 -80 -3 -9 -36 -23 -81 -34 l-76 -19 14 -27 c27 -52 56
-176 62 -267 l6 -91 63 -33 c57 -29 64 -35 64 -62 0 -38 -68 -107 -151 -155
-41 -23 -60 -42 -73 -71 -17 -37 -22 -40 -119 -70 -165 -50 -317 -72 -538 -78
-268 -8 -422 9 -621 68 -60 17 -70 24 -89 59 -15 26 -41 51 -73 69 -68 39
-122 96 -141 150 -8 24 -15 47 -15 52 0 4 26 22 59 39 l58 31 7 77 c4 42 12
103 18 134 10 54 9 61 -16 111 -15 29 -43 71 -62 93 -54 62 -59 68 -57 76 2 5
0 7 -5 6 -4 -1 -25 14 -47 35 -22 20 -45 37 -51 37 -6 0 -21 11 -34 25 -13 14
-28 25 -34 25 -6 0 -36 13 -66 30 -30 16 -64 29 -76 30 -11 0 -24 4 -30 9 -5
6 -40 19 -79 29 l-70 19 3 59 c9 174 92 332 224 430 79 58 142 87 306 137
l139 44 54 -39 c48 -34 199 -118 212 -118 15 0 -8 77 -26 90 -61 44 -147 123
-140 130 4 4 54 27 110 52 86 37 107 51 133 86 16 23 30 47 30 53 0 16 51 99
61 99 5 0 9 6 9 13 0 8 11 20 25 27 14 7 23 16 20 18 -5 6 19 21 80 51 64 31
166 28 235 -7z"/>
</g>
</svg>
